<svg width="1920" height="1080" viewBox="0 0 1920 1080" fill="none" xmlns="http://www.w3.org/2000/svg">
  <defs>
    <linearGradient id="sky" x1="960" y1="0" x2="960" y2="1080" gradientUnits="userSpaceOnUse">
      <stop offset="0" stop-color="#DFF3FF"/>
      <stop offset="1" stop-color="#F5F7FA"/>
    </linearGradient>
    <radialGradient id="sunGlow" cx="0" cy="0" r="1" gradientUnits="userSpaceOnUse" gradientTransform="translate(1580 130) rotate(90) scale(230 230)">
      <stop stop-color="#FFE082" stop-opacity="0.85"/>
      <stop offset="1" stop-color="#FFE082" stop-opacity="0"/>
    </radialGradient>
    <radialGradient id="rainGlow" cx="0" cy="0" r="1" gradientUnits="userSpaceOnUse" gradientTransform="translate(320 220) rotate(90) scale(260 360)">
      <stop stop-color="#90CAF9" stop-opacity="0.35"/>
      <stop offset="1" stop-color="#90CAF9" stop-opacity="0"/>
    </radialGradient>
    <filter id="blurSoft" x="-20%" y="-20%" width="140%" height="140%">
      <feGaussianBlur stdDeviation="18"/>
    </filter>
  </defs>

  <rect width="1920" height="1080" fill="url(#sky)"/>
  <circle cx="1580" cy="130" r="230" fill="url(#sunGlow)"/>
  <ellipse cx="320" cy="220" rx="320" ry="220" fill="url(#rainGlow)"/>

  <g opacity="0.28" filter="url(#blurSoft)">
    <ellipse cx="430" cy="210" rx="140" ry="46" fill="#FFFFFF"/>
    <ellipse cx="1180" cy="170" rx="180" ry="54" fill="#FFFFFF"/>
    <ellipse cx="1560" cy="300" rx="160" ry="50" fill="#FFFFFF"/>
    <ellipse cx="860" cy="280" rx="220" ry="62" fill="#FFFFFF"/>
  </g>

  <g opacity="0.18">
    <path d="M210 370C225 420 245 470 270 520" stroke="#5DA9E9" stroke-width="8" stroke-linecap="round"/>
    <path d="M260 350C275 400 298 455 325 510" stroke="#5DA9E9" stroke-width="8" stroke-linecap="round"/>
    <path d="M315 340C332 392 355 448 382 502" stroke="#5DA9E9" stroke-width="8" stroke-linecap="round"/>
    <path d="M365 350C382 402 406 456 432 510" stroke="#5DA9E9" stroke-width="8" stroke-linecap="round"/>
  </g>

  <g opacity="0.15">
    <circle cx="1660" cy="120" r="46" stroke="#FFD54F" stroke-width="6"/>
    <path d="M1660 40V66" stroke="#FFD54F" stroke-width="6" stroke-linecap="round"/>
    <path d="M1660 174V200" stroke="#FFD54F" stroke-width="6" stroke-linecap="round"/>
    <path d="M1738 120H1712" stroke="#FFD54F" stroke-width="6" stroke-linecap="round"/>
    <path d="M1608 120H1582" stroke="#FFD54F" stroke-width="6" stroke-linecap="round"/>
  </g>
</svg>
